<svg width="12" height="12" viewBox="0 0 12 12" fill="none" xmlns="http://www.w3.org/2000/svg">
<path fill-rule="evenodd" clip-rule="evenodd" d="M10.9754 2.85735C10.5848 2.23886 10.0802 1.70175 9.49429 1.27857C9.29898 1.13208 9.08739 1.00187 8.8758 0.887942C8.28986 0.56242 7.63882 0.334554 6.93895 0.220621C6.64598 0.171793 6.35301 0.155518 6.04376 0.155518C5.83217 0.155518 5.63686 0.171793 5.44155 0.188069C5.11603 0.220621 4.7905 0.285727 4.48126 0.367107C4.39988 0.383383 4.31849 0.415936 4.23711 0.448488C3.47214 0.692629 2.78854 1.09953 2.2026 1.60409C1.71432 2.02727 1.30742 2.53183 0.981895 3.10149C0.493612 3.94785 0.216919 4.92441 0.216919 5.96608C0.216919 7.00775 0.493612 7.98432 0.981895 8.83068C1.30742 9.40034 1.71432 9.9049 2.2026 10.3281C2.78854 10.8489 3.47214 11.2395 4.23711 11.4837C4.31849 11.5162 4.39988 11.5325 4.48126 11.5651C4.7905 11.6464 5.11603 11.7115 5.44155 11.7441C5.63686 11.7604 5.84845 11.7766 6.04376 11.7766C6.35301 11.7766 6.64598 11.7604 6.93895 11.7115C7.63882 11.5976 8.28986 11.3697 8.8758 11.0442C9.08739 10.9303 9.29898 10.7838 9.49429 10.6536C10.0802 10.2304 10.5848 9.67703 10.9754 9.07482C11.5451 8.17963 11.8706 7.10541 11.8706 5.96608C11.8706 4.82676 11.5451 3.75254 10.9754 2.85735ZM8.8758 1.26229C9.08739 1.3925 9.29898 1.53899 9.49429 1.70175C9.64078 1.81568 9.78726 1.94589 9.91747 2.09237C10.0314 2.2063 10.1616 2.33651 10.2593 2.46672C10.243 2.46672 10.2267 2.45045 10.2104 2.45045C9.98258 2.17375 9.73844 1.94589 9.49429 1.75058C9.41291 1.68547 9.33154 1.62037 9.23388 1.55526C9.11995 1.47388 8.98973 1.40878 8.8758 1.34367C8.63166 1.21346 8.35497 1.11581 8.07827 1.03443C7.98062 0.936769 7.88296 0.839113 7.75275 0.757733C8.15966 0.887941 8.534 1.0507 8.8758 1.26229ZM6.93895 1.37622C7.18309 1.21346 7.58999 1.09953 7.98062 1.08325C8.28986 1.16464 8.59911 1.27857 8.8758 1.42505C8.97346 1.49016 9.08739 1.53899 9.18505 1.62037C9.28271 1.68547 9.39664 1.76685 9.49429 1.84823C9.78726 2.0761 10.0477 2.36907 10.3244 2.71086C10.5522 3.15032 10.6173 3.68743 10.4871 4.06178C10.1616 4.15944 9.81982 4.24082 9.49429 4.3222C9.31526 4.37103 9.1525 4.40358 8.97346 4.45241C8.94091 4.41985 8.90835 4.3873 8.8758 4.35475C8.4038 3.86647 7.80158 3.49212 7.18309 3.26425C7.15054 2.92245 7.10171 2.59693 7.03661 2.27141C7.00405 2.15748 6.98778 2.04354 6.93895 1.92961C6.89012 1.78313 6.84129 1.63664 6.79246 1.50643C6.82502 1.45761 6.87384 1.42505 6.93895 1.37622ZM5.44155 1.13208C5.92983 1.18091 6.36929 1.29484 6.71108 1.50643C6.80874 1.7343 6.89012 1.99472 6.95522 2.27141V2.28769C7.02033 2.59693 7.06916 2.93873 7.10171 3.26425C7.05288 3.28053 7.00405 3.31308 6.95522 3.34563C6.41811 3.6386 5.8159 4.11061 5.44155 4.50123C5.42527 4.51751 5.40899 4.53379 5.39272 4.56634C5.09975 4.48496 4.7905 4.40358 4.49753 4.35475C4.43243 4.33847 4.36732 4.33848 4.31849 4.3222L4.25339 4.30592C3.91159 4.24082 3.5698 4.20826 3.21172 4.17571C2.98386 3.67115 2.90247 3.13404 2.90247 2.58065C3.11406 2.27141 3.39076 1.99472 3.70001 1.76685C3.87904 1.63664 4.05808 1.50643 4.26967 1.3925C4.35105 1.34367 4.43243 1.31112 4.51381 1.26229C4.59519 1.21346 4.69285 1.18091 4.7905 1.14836C4.98582 1.09953 5.21368 1.11581 5.44155 1.13208ZM6.07631 6.71478C5.881 7.04031 5.66941 7.34955 5.44155 7.6588L5.42527 7.67508C5.1974 7.98432 4.95326 8.27729 4.70912 8.57026C4.62774 8.57026 4.54636 8.57026 4.48126 8.57026C4.39988 8.57026 4.31849 8.57026 4.23711 8.55398C3.66745 8.52143 3.11406 8.37495 2.6095 8.16336C2.44674 7.88666 2.31653 7.60997 2.2026 7.317C2.17005 7.23562 2.1375 7.15424 2.12122 7.07286C2.00729 6.71478 1.92591 6.35671 1.86081 5.98236C1.95846 5.73822 2.07239 5.49408 2.2026 5.28249C2.4793 4.82676 2.80482 4.48496 3.16289 4.22454C3.52097 4.25709 3.87904 4.28965 4.22084 4.35475L4.26967 4.37103C4.33477 4.3873 4.39988 4.3873 4.46498 4.40358C4.74167 4.45241 5.03464 4.53379 5.31134 4.59889C5.34389 4.71282 5.39272 4.82676 5.42527 4.94069C5.63686 5.5429 5.84845 6.12885 6.07631 6.71478ZM2.17005 2.0761L2.2026 2.04355C2.77227 1.49016 3.45586 1.0507 4.23711 0.77401C4.31849 0.741458 4.39988 0.725181 4.48126 0.692629C4.57891 0.660077 4.67657 0.643801 4.77423 0.611249C4.66029 0.725181 4.62774 0.887942 4.62774 1.0507C4.57891 1.06698 4.53008 1.08325 4.48126 1.11581C4.39988 1.14836 4.31849 1.19719 4.23711 1.24602C4.00925 1.35995 3.81394 1.50643 3.61862 1.65292C3.30938 1.89706 3.03269 2.19003 2.80482 2.49927C2.59323 2.5481 2.38164 2.59693 2.2026 2.67831C1.90963 2.79225 1.64922 2.97128 1.4539 3.18287C1.4539 3.13404 1.43763 3.10149 1.43763 3.05266C1.43763 3.03639 1.43763 3.02011 1.43763 2.98756C1.64922 2.66204 1.89336 2.35279 2.17005 2.0761ZM0.981895 3.85019C1.09583 3.58977 1.20976 3.34563 1.35625 3.10149C1.35625 3.15032 1.37252 3.21542 1.3888 3.26425L1.37252 3.2968C1.20976 3.50839 1.07955 3.78509 0.981895 4.07806C0.851686 4.46868 0.786582 4.89186 0.819134 5.26621C0.737754 5.36387 0.656373 5.46152 0.574993 5.59173C0.607545 4.98952 0.75403 4.40358 0.981895 3.85019ZM1.82825 9.43289C1.81198 9.43289 1.81198 9.41662 1.7957 9.41662C1.47018 9.00971 1.19348 8.55398 0.981895 8.0657C0.705201 7.41466 0.558718 6.71478 0.558718 5.96608C0.558718 5.91725 0.558718 5.86843 0.558718 5.8196C0.574994 5.77077 0.607545 5.72194 0.623821 5.68939C0.688926 5.57546 0.754031 5.4778 0.835411 5.39642C0.884239 5.44525 0.916792 5.49408 0.96562 5.52663C1.19349 5.72194 1.4539 5.86843 1.74687 5.98236C1.7957 6.37299 1.89336 6.76361 2.00729 7.12169C2.05612 7.28445 2.12122 7.43093 2.18633 7.57742C2.28398 7.82156 2.39792 8.04942 2.52812 8.27729C2.36536 8.70047 2.25143 9.12365 2.28398 9.57938C2.25143 9.57938 2.21888 9.57938 2.18633 9.5631C2.0724 9.53055 1.94219 9.498 1.82825 9.43289ZM4.23711 11.1419C3.47214 10.8652 2.77227 10.442 2.2026 9.87235L2.17005 9.83979C2.08867 9.75841 2.00729 9.66076 1.92591 9.57938C2.02357 9.61193 2.10495 9.64448 2.2026 9.66076C2.23515 9.66076 2.28398 9.67703 2.31654 9.67703C2.52813 10.1328 3.48841 10.7838 4.12318 10.8977C4.15573 10.9791 4.18829 11.0605 4.23711 11.1419ZM8.38752 10.9303C7.93179 11.1419 7.45978 11.2884 6.95522 11.386C6.66225 11.4349 6.36929 11.4674 6.06004 11.4674C5.84845 11.4674 5.65313 11.4511 5.45782 11.4348C5.1323 11.4023 4.80678 11.3372 4.49753 11.2395C4.46498 11.2395 4.4487 11.2233 4.41615 11.207C4.33477 11.1419 4.28594 11.0442 4.25339 10.9303V10.914C4.33477 10.914 4.41615 10.8977 4.49753 10.8815C4.85561 10.8164 5.16485 10.6862 5.45782 10.4746C5.52293 10.4257 5.58803 10.3769 5.63686 10.3281C5.89728 10.442 6.27163 10.4908 6.67853 10.4746C6.77619 10.4746 6.87384 10.4746 6.95522 10.4583C7.3133 10.442 7.67137 10.3769 7.99689 10.2793C8.14338 10.4583 8.28986 10.6373 8.50145 10.735C8.45263 10.8001 8.42007 10.8652 8.38752 10.9303ZM8.8758 10.6536C8.76187 10.7187 8.64794 10.7838 8.51773 10.8489C8.534 10.8164 8.55028 10.7675 8.56656 10.735C8.68049 10.7187 8.77815 10.6862 8.8758 10.6536C8.89208 10.6373 8.90836 10.6373 8.90836 10.621C8.90836 10.6373 8.89208 10.6536 8.8758 10.6536ZM8.8758 9.31896C8.63166 9.67703 8.35497 9.97 8.11083 10.1328C7.75275 10.2467 7.34585 10.3281 6.93895 10.3606C6.84129 10.3606 6.74364 10.3769 6.66225 10.3769C6.25535 10.3769 5.89728 10.3281 5.63686 10.2304C5.57176 10.149 5.50665 10.0514 5.44155 9.97C5.16485 9.57938 4.93699 9.13992 4.7905 8.65164C5.01837 8.39122 5.22996 8.11453 5.44155 7.85411C5.4741 7.82156 5.50665 7.77273 5.52293 7.74018C5.75079 7.43093 5.96238 7.13796 6.14142 6.81244C6.40184 6.82872 6.67853 6.84499 6.93895 6.84499C7.41095 6.84499 7.88296 6.82872 8.35497 6.77989C8.55028 7.00775 8.72932 7.2519 8.8758 7.52859C8.89208 7.56114 8.90835 7.57742 8.92463 7.60997C9.07112 7.88666 9.20133 8.17964 9.31526 8.48888C9.2176 8.76557 9.05484 9.05854 8.8758 9.31896ZM9.49429 8.4726C9.46174 8.4726 9.42919 8.4726 9.41291 8.4726C9.29898 8.13081 9.16877 7.83783 9.00601 7.54486C8.97346 7.47976 8.92463 7.39838 8.89208 7.33328C8.76187 7.12169 8.61539 6.9101 8.45263 6.73106C8.64794 6.30788 8.79442 5.90098 8.89208 5.4778C8.95718 5.16855 9.00601 4.85931 9.03856 4.55006C9.20132 4.51751 9.36409 4.46868 9.51057 4.43613C9.85237 4.35475 10.1779 4.27337 10.5197 4.17571C10.6662 4.27337 10.8452 4.48496 10.9917 4.74538C11.1219 4.98952 11.2521 5.28249 11.3335 5.62429C11.366 6.12885 11.3172 6.58457 11.2033 7.02403C11.1545 7.21934 11.0731 7.41465 10.9917 7.60997C10.9103 7.789 10.8127 7.96804 10.715 8.1308C10.2918 8.32612 9.88492 8.45633 9.49429 8.4726ZM10.6173 8.97716C10.7313 8.68419 10.7801 8.4075 10.7638 8.14708C10.8452 8.03315 10.9103 7.91921 10.9754 7.78901C11.1056 7.54486 11.2033 7.28445 11.2684 7.02403C11.3823 6.61713 11.4312 6.19395 11.4149 5.73822C11.4474 5.70567 11.4963 5.64056 11.5288 5.57546C11.5451 5.70567 11.5451 5.83587 11.5451 5.96608C11.5451 6.82872 11.3498 7.64252 10.9917 8.37495C10.8615 8.58654 10.7476 8.78185 10.6173 8.97716Z" fill="black"/>
</svg>
